<svg width="50" height="50" viewBox="0 0 50 50" fill="none" xmlns="http://www.w3.org/2000/svg">
<g id="camera">
<g id="Group">
<path id="Vector" d="M45.0514 35.9378C45.0514 36.6975 44.7496 37.4261 44.2124 37.9634C43.6752 38.5006 42.9465 38.8024 42.1868 38.8024H7.81128C7.05154 38.8024 6.32291 38.5006 5.78569 37.9634C5.24846 37.4261 4.94666 36.6975 4.94666 35.9378V18.75C4.94666 17.9903 5.24846 17.2616 5.78569 16.7244C6.32291 16.1872 7.05154 15.8854 7.81128 15.8854H11.1686C13.4467 15.8841 15.631 14.9784 17.2416 13.3674L19.6193 10.9955C20.155 10.4596 20.8811 10.1578 21.6388 10.1561H28.3535C29.1132 10.1563 29.8417 10.4582 30.3788 10.9955L32.7507 13.3674C33.5489 14.1658 34.4966 14.7991 35.5396 15.2312C36.5826 15.6632 37.7005 15.8855 38.8294 15.8854H42.1868C42.9465 15.8854 43.6752 16.1872 44.2124 16.7244C44.7496 17.2616 45.0514 17.9903 45.0514 18.75V35.9378ZM7.81128 13.0208C6.29179 13.0208 4.83453 13.6244 3.76009 14.6988C2.68565 15.7733 2.08203 17.2305 2.08203 18.75L2.08203 35.9378C2.08203 37.4573 2.68565 38.9145 3.76009 39.989C4.83453 41.0634 6.29179 41.667 7.81128 41.667H42.1868C43.7063 41.667 45.1635 41.0634 46.238 39.989C47.3124 38.9145 47.916 37.4573 47.916 35.9378V18.75C47.916 17.2305 47.3124 15.7733 46.238 14.6988C45.1635 13.6244 43.7063 13.0208 42.1868 13.0208H38.8294C37.3101 13.0204 35.8531 12.4166 34.7789 11.3421L32.407 8.97017C31.3328 7.89566 29.8757 7.29183 28.3564 7.2915H21.6417C20.1223 7.29183 18.6653 7.89566 17.5911 8.97017L15.2192 11.3421C14.145 12.4166 12.688 13.0204 11.1686 13.0208H7.81128Z" fill="url(#paint0_linear_711_740)"/>
<path id="Vector_2" d="M10.6761 20.1823C10.6761 20.5622 10.5252 20.9265 10.2566 21.1951C9.98802 21.4637 9.62371 21.6146 9.24384 21.6146C8.86396 21.6146 8.49965 21.4637 8.23104 21.1951C7.96243 20.9265 7.81152 20.5622 7.81152 20.1823C7.81152 19.8024 7.96243 19.4381 8.23104 19.1695C8.49965 18.9009 8.86396 18.75 9.24384 18.75C9.62371 18.75 9.98802 18.9009 10.2566 19.1695C10.5252 19.4381 10.6761 19.8024 10.6761 20.1823Z" fill="url(#paint1_linear_711_740)"/>
<path id="Vector_3" d="M32.3652 25.9301V27.939C32.3652 28.218 32.2675 28.4552 32.0722 28.6505C31.8769 28.8458 31.6397 28.9435 31.3607 28.9435H27.008V33.2962C27.008 33.5753 26.9103 33.8124 26.715 34.0077C26.5197 34.2031 26.2825 34.3007 26.0035 34.3007H23.9945C23.7155 34.3007 23.4783 34.2031 23.283 34.0077C23.0877 33.8124 22.99 33.5753 22.99 33.2962V28.9435H18.6373C18.3583 28.9435 18.1211 28.8458 17.9258 28.6505C17.7305 28.4552 17.6328 28.218 17.6328 27.939V25.9301C17.6328 25.651 17.7305 25.4139 17.9258 25.2186C18.1211 25.0232 18.3583 24.9256 18.6373 24.9256H22.99V20.5728C22.99 20.2938 23.0877 20.0566 23.283 19.8613C23.4783 19.666 23.7155 19.5684 23.9945 19.5684H26.0035C26.2825 19.5684 26.5197 19.666 26.715 19.8613C26.9103 20.0566 27.008 20.2938 27.008 20.5728V24.9256H31.3607C31.6397 24.9256 31.8769 25.0232 32.0722 25.2186C32.2675 25.4139 32.3652 25.651 32.3652 25.9301Z" fill="url(#paint2_linear_711_740)"/>
</g>
</g>
<defs>
<linearGradient id="paint0_linear_711_740" x1="2.08203" y1="24.4793" x2="47.916" y2="24.4793" gradientUnits="userSpaceOnUse">
<stop stop-color="#4452C8"/>
<stop offset="1" stop-color="#693B9E"/>
</linearGradient>
<linearGradient id="paint1_linear_711_740" x1="7.81152" y1="20.1823" x2="10.6761" y2="20.1823" gradientUnits="userSpaceOnUse">
<stop stop-color="#4452C8"/>
<stop offset="1" stop-color="#693B9E"/>
</linearGradient>
<linearGradient id="paint2_linear_711_740" x1="17.6328" y1="26.9345" x2="32.3652" y2="26.9345" gradientUnits="userSpaceOnUse">
<stop stop-color="#4452C8"/>
<stop offset="1" stop-color="#693B9E"/>
</linearGradient>
</defs>
</svg>
