<svg width="22" height="22" viewBox="0 0 22 22" fill="none" xmlns="http://www.w3.org/2000/svg">
<path d="M8.25 8.25H9.625V16.5H8.25V8.25Z" fill="white"/>
<path d="M12.375 8.25H13.75V16.5H12.375V8.25Z" fill="white"/>
<path d="M2.75 4.125V5.5H4.125V19.25C4.125 19.6147 4.26987 19.9644 4.52773 20.2223C4.78559 20.4801 5.13533 20.625 5.5 20.625H16.5C16.8647 20.625 17.2144 20.4801 17.4723 20.2223C17.7301 19.9644 17.875 19.6147 17.875 19.25V5.5H19.25V4.125H2.75ZM5.5 19.25V5.5H16.5V19.25H5.5Z" fill="white"/>
<path d="M8.25 1.375H13.75V2.75H8.25V1.375Z" fill="white"/>
</svg>
